<svg width="97" height="86" xmlns="http://www.w3.org/2000/svg" xmlns:xlink="http://www.w3.org/1999/xlink" xml:space="preserve" overflow="hidden"><defs><clipPath id="clip0"><rect x="0" y="0" width="97" height="86"/></clipPath></defs><g clip-path="url(#clip0)"><path d="M78.9621 38.8512C78.9621 38.8512 80.2387 45.0996 80.5242 46.4098L74.9141 46.4098C75.4684 44.9148 77.6016 39.1031 77.6016 39.1031 77.568 39.1535 78.1559 37.5746 78.4918 36.6004L78.9621 38.8512ZM96.75 13.4375 96.75 72.5625C96.75 77.0137 93.1387 80.625 88.6875 80.625L8.0625 80.625C3.61133 80.625 0 77.0137 0 72.5625L0 13.4375C0 8.98633 3.61133 5.375 8.0625 5.375L88.6875 5.375C93.1387 5.375 96.75 8.98633 96.75 13.4375ZM25.6152 55.6313 36.2309 29.5625 29.0922 29.5625 22.491 47.3672 21.7688 43.7559 19.4172 31.7629C19.0309 30.1 17.8383 29.6297 16.3602 29.5625L5.49258 29.5625 5.375 30.0832C8.02891 30.7551 10.3973 31.7293 12.4633 32.9555L18.4766 55.6313 25.6152 55.6313ZM41.4715 55.6648 45.7043 29.5625 38.952 29.5625 34.7359 55.6648 41.4715 55.6648ZM64.9703 47.132C65.0039 44.159 63.1898 41.8914 59.3098 40.027 56.9414 38.8344 55.4969 38.0281 55.4969 36.802 55.5305 35.6934 56.723 34.5512 59.377 34.5512 61.5773 34.5008 63.1898 35.0215 64.3992 35.5422L65.0039 35.8277 65.9277 30.184C64.6008 29.6633 62.4844 29.0754 59.8809 29.0754 53.2125 29.0754 48.5262 32.6363 48.4926 37.709 48.4422 41.4547 51.852 43.5375 54.4051 44.7973 57.0086 46.0738 57.8988 46.9137 57.8988 48.0391 57.8652 49.7859 55.7824 50.5922 53.8508 50.5922 51.1633 50.5922 49.7188 50.1723 47.5184 49.198L46.6281 48.7781 45.6875 54.6402C47.2664 55.3625 50.1891 56.0008 53.2125 56.0344 60.3008 56.0512 64.9199 52.5406 64.9703 47.132ZM88.6875 55.6648 83.2453 29.5625 78.0215 29.5625C76.409 29.5625 75.1828 30.0328 74.4941 31.7293L64.4664 55.6648 71.5547 55.6648C71.5547 55.6648 72.7137 52.4398 72.9656 51.7512L81.6328 51.7512C81.8344 52.675 82.4391 55.6648 82.4391 55.6648L88.6875 55.6648Z" transform="scale(1.00258 1)"/></g></svg>