<svg width="87" height="87" xmlns="http://www.w3.org/2000/svg" xmlns:xlink="http://www.w3.org/1999/xlink" xml:space="preserve" overflow="hidden"><defs><clipPath id="clip0"><rect x="0" y="0" width="87" height="87"/></clipPath></defs><g clip-path="url(#clip0)"><path d="M32.3701 11.6906 38.2834 21.75 38.0625 21.75 25.8281 21.75C22.0729 21.75 19.0312 18.7084 19.0312 14.9531 19.0312 11.1979 22.0729 8.15625 25.8281 8.15625L26.202 8.15625C28.7338 8.15625 31.0957 9.49863 32.3701 11.6906ZM10.875 14.9531C10.875 17.4 11.4697 19.7109 12.5062 21.75L5.4375 21.75C2.42988 21.75 0 24.1799 0 27.1875L0 38.0625C0 41.0701 2.42988 43.5 5.4375 43.5L81.5625 43.5C84.5701 43.5 87 41.0701 87 38.0625L87 27.1875C87 24.1799 84.5701 21.75 81.5625 21.75L74.4938 21.75C75.5303 19.7109 76.125 17.4 76.125 14.9531 76.125 6.69492 69.4301 0 61.1719 0L60.798 0C55.3775 0 50.3479 2.87168 47.5951 7.54453L43.5 14.5283 39.4049 7.56152C36.6521 2.87168 31.6225 0 26.202 0L25.8281 0C17.5699 0 10.875 6.69492 10.875 14.9531ZM67.9688 14.9531C67.9688 18.7084 64.9271 21.75 61.1719 21.75L48.9375 21.75 48.7166 21.75 54.6299 11.6906C55.9213 9.49863 58.2662 8.15625 60.798 8.15625L61.1719 8.15625C64.9271 8.15625 67.9688 11.1979 67.9688 14.9531ZM5.4375 48.9375 5.4375 78.8438C5.4375 83.3467 9.09082 87 13.5938 87L38.0625 87 38.0625 48.9375 5.4375 48.9375ZM48.9375 87 73.4062 87C77.9092 87 81.5625 83.3467 81.5625 78.8438L81.5625 48.9375 48.9375 48.9375 48.9375 87Z"/></g></svg>