<svg width="102" height="82" xmlns="http://www.w3.org/2000/svg" xmlns:xlink="http://www.w3.org/1999/xlink" xml:space="preserve" overflow="hidden"><defs><clipPath id="clip0"><rect x="0" y="0" width="102" height="82"/></clipPath></defs><g clip-path="url(#clip0)"><path d="M85.2656 6.53437C83.7675 5.03625 83.7675 2.61375 85.2656 1.13156 86.7638-0.350625 89.1862-0.366562 90.6684 1.13156L100.868 11.3316C101.586 12.0487 101.984 13.0209 101.984 14.0409 101.984 15.0609 101.586 16.0331 100.868 16.7503L90.6684 26.9503C89.1703 28.4484 86.7478 28.4484 85.2656 26.9503 83.7834 25.4522 83.7675 23.0297 85.2656 21.5475L88.9313 17.8819 61.2 17.85C59.0803 17.85 57.375 16.1447 57.375 14.025 57.375 11.9053 59.0803 10.2 61.2 10.2L88.9472 10.2 85.2656 6.53437ZM16.7344 60.0844 13.0687 63.75 40.8 63.75C42.9197 63.75 44.625 65.4553 44.625 67.575 44.625 69.6947 42.9197 71.4 40.8 71.4L13.0528 71.4 16.7184 75.0656C18.2166 76.5638 18.2166 78.9863 16.7184 80.4684 15.2203 81.9506 12.7978 81.9666 11.3156 80.4684L1.11563 70.2844C0.398438 69.5672 0 68.595 0 67.575 0 66.555 0.398438 65.5828 1.11563 64.8656L11.3156 54.6656C12.8138 53.1675 15.2362 53.1675 16.7184 54.6656 18.2006 56.1637 18.2166 58.5863 16.7184 60.0684ZM15.3 10.2 53.8528 10.2C53.2631 11.3475 52.9125 12.6384 52.9125 14.025 52.9125 18.5991 56.6259 22.3125 61.2 22.3125L79.9106 22.3125C79.2731 25.0219 80.0062 27.9703 82.11 30.09 85.3453 33.3253 90.5888 33.3253 93.8241 30.09L96.9 27.0141 96.9 61.2C96.9 66.8259 92.3259 71.4 86.7 71.4L48.1472 71.4C48.7369 70.2525 49.0875 68.9616 49.0875 67.575 49.0875 63.0009 45.3741 59.2875 40.8 59.2875L22.0894 59.2875C22.7269 56.5781 21.9937 53.6297 19.89 51.51 16.6547 48.2747 11.4112 48.2747 8.17594 51.51L5.1 54.5859 5.1 20.4C5.1 14.7741 9.67406 10.2 15.3 10.2ZM25.5 20.4 15.3 20.4 15.3 30.6C20.9259 30.6 25.5 26.0259 25.5 20.4ZM86.7 51C81.0741 51 76.5 55.5741 76.5 61.2L86.7 61.2 86.7 51ZM51 56.1C59.4499 56.1 66.3 49.2499 66.3 40.8 66.3 32.3501 59.4499 25.5 51 25.5 42.5501 25.5 35.7 32.3501 35.7 40.8 35.7 49.2499 42.5501 56.1 51 56.1Z" transform="scale(1 1.0049)"/></g></svg>